<?xml version="1.0" encoding="UTF-8"?>
<svg id="_图层_2" data-name="图层 2" xmlns="http://www.w3.org/2000/svg" viewBox="0 0 450.86 62.19">
  <defs>
    <style>
      .cls-1 {
        fill: #1b94c7;
      }

      .cls-1, .cls-2, .cls-3, .cls-4, .cls-5, .cls-6, .cls-7 {
        fill-rule: evenodd;
      }

      .cls-2 {
        fill: #009c8c;
      }

      .cls-3 {
        fill: #075d77;
      }

      .cls-4 {
        fill: #9dc715;
      }

      .cls-5 {
        fill: #18316e;
      }

      .cls-6 {
        fill: #007278;
      }

      .cls-7 {
        fill: #ffffff;
      }
    </style>
  </defs>
  <g id="_图层_1-2" data-name="图层 1">
    <g>
      <path class="cls-6" d="M26.65,15.46v4.62c0,1.04.4,2.02,1.1,2.76h0s-.07.08-.1.13c-.34.42-.64.87-.9,1.34-.54-.01-1.08.03-1.61.11-.05,0-.11.02-.16.03-.29-.97-.94-1.81-1.84-2.33l-4-2.31c-.84-3.76-1.38-7.59-1.6-11.44h0c3.23,2.12,6.28,4.49,9.12,7.1h0Z"/>
      <path class="cls-6" d="M26.65,46.73v-4.62c0-1.04.4-2.02,1.1-2.76h0s-.07-.08-.1-.13c-.34-.42-.64-.87-.9-1.34-.54.01-1.08-.03-1.61-.11-.05,0-.11-.02-.16-.03-.29.97-.94,1.81-1.84,2.33l-4,2.31c-.84,3.76-1.38,7.59-1.6,11.44h0c3.23-2.12,6.28-4.49,9.12-7.1h0Z"/>
      <path class="cls-6" d="M34.68,15.46v4.62c0,1.04-.4,2.02-1.1,2.76h0s.07.08.1.13c.34.42.64.87.9,1.34.54-.01,1.08.03,1.61.11.05,0,.11.02.16.03.29-.97.94-1.81,1.84-2.33l4-2.31c.84-3.76,1.38-7.59,1.6-11.44h0c-3.23,2.12-6.28,4.49-9.11,7.1h0Z"/>
      <path class="cls-6" d="M34.68,46.73v-4.62c0-1.04-.4-2.02-1.1-2.76h0s.07-.08.1-.13c.34-.42.64-.87.9-1.34.54.01,1.08-.03,1.61-.11.05,0,.11-.02.16-.03.29.97.94,1.81,1.84,2.33l4,2.31c.84,3.76,1.38,7.59,1.6,11.44h0c-3.23-2.12-6.28-4.49-9.11-7.1h0Z"/>
      <path class="cls-4" d="M34.68,15.46v-4.43h-1.33V0c2.42.21,4.8.7,7.1,1.46,2.1.69,3.49,2.68,3.43,4.89-.02.67-.05,1.34-.09,2.01-3.23,2.12-6.28,4.49-9.11,7.1h0Z"/>
      <path class="cls-4" d="M34.68,46.73v4.43h-1.33v11.02c2.42-.21,4.8-.7,7.1-1.46,2.1-.69,3.49-2.68,3.43-4.89-.02-.67-.05-1.34-.09-2.01-3.23-2.12-6.28-4.49-9.11-7.1h0Z"/>
      <path class="cls-4" d="M17.53,8.35c-.04-.67-.07-1.34-.08-2.01-.06-2.21,1.33-4.19,3.43-4.89,2.3-.76,4.69-1.25,7.1-1.46v11.02h-1.33v4.43c-2.84-2.61-5.88-4.99-9.12-7.1h0Z"/>
      <path class="cls-4" d="M17.53,53.84c-.04.67-.07,1.34-.08,2.01-.06,2.21,1.33,4.2,3.43,4.89,2.3.76,4.69,1.25,7.1,1.46v-11.02h-1.33v-4.43c-2.83,2.61-5.88,4.99-9.12,7.1h0Z"/>
      <path class="cls-1" d="M30.66,19.47c1.29-1.39,2.62-2.73,4.02-4.01v4.62c0,1.04-.4,2.02-1.1,2.76-.94-1.15-1.91-2.28-2.92-3.37h0Z"/>
      <path class="cls-2" d="M30.66,42.73c1.29,1.39,2.62,2.73,4.02,4.01v-4.62c0-1.04-.4-2.02-1.1-2.76-.94,1.15-1.91,2.28-2.92,3.37h0Z"/>
      <path class="cls-2" d="M30.66,19.47c-1.29-1.39-2.62-2.73-4.02-4.01v4.62c0,1.04.4,2.02,1.1,2.76.94-1.15,1.91-2.28,2.92-3.37h0Z"/>
      <path class="cls-1" d="M30.66,42.73c-1.29,1.39-2.62,2.73-4.02,4.01v-4.62c0-1.04.4-2.02,1.1-2.76.94,1.15,1.91,2.28,2.92,3.37h0Z"/>
      <path class="cls-3" d="M33.26,23.14c.11-.1.22-.2.32-.31h0c-.94-1.15-1.91-2.28-2.92-3.37-1.01,1.09-1.98,2.21-2.92,3.37,1.45,1.53,3.9,1.67,5.51.31h0Z"/>
      <path class="cls-3" d="M33.26,39.05c.11.1.22.2.32.31h0c-.94,1.15-1.91,2.28-2.92,3.37-1.01-1.09-1.98-2.21-2.92-3.37,1.45-1.53,3.9-1.67,5.51-.31h0Z"/>
      <path class="cls-6" d="M15.11,26.75l4,2.31c.9.52,1.95.66,2.94.43h0c.02.05.04.1.06.15.19.5.43.99.71,1.45-.28.46-.52.95-.71,1.45-.02.05-.04.1-.06.15-.98-.23-2.04-.09-2.94.43l-4,2.31c-3.68-1.15-7.26-2.6-10.71-4.34h0c3.45-1.74,7.03-3.19,10.71-4.34h0Z"/>
      <path class="cls-6" d="M46.22,35.44l-4-2.31c-.9-.52-1.95-.66-2.94-.43h0c-.02-.05-.04-.1-.06-.15-.19-.5-.43-.99-.71-1.45.28-.46.52-.95.71-1.45.02-.05.04-.1.06-.15.99.23,2.04.09,2.94-.43l4-2.31c3.68,1.15,7.26,2.6,10.71,4.34h0c-3.45,1.74-7.03,3.19-10.71,4.34h0Z"/>
      <path class="cls-2" d="M19.13,19.8l-3.84-2.22-.67,1.15-9.54-5.51c1.39-1.99,3-3.81,4.81-5.42,1.65-1.47,4.06-1.68,5.95-.53.57.35,1.14.71,1.7,1.08.22,3.86.75,7.69,1.6,11.45h0Z"/>
      <path class="cls-2" d="M46.22,35.44l3.84,2.22-.67,1.15,9.54,5.51c1.03-2.2,1.8-4.5,2.29-6.88.45-2.16-.57-4.36-2.52-5.41-.59-.32-1.18-.63-1.78-.93-3.45,1.74-7.03,3.19-10.71,4.34h0Z"/>
      <path class="cls-2" d="M4.4,31.09c-.6-.3-1.19-.61-1.78-.93-1.94-1.05-2.97-3.25-2.52-5.41.49-2.37,1.26-4.68,2.29-6.88l9.54,5.51-.67,1.15,3.84,2.22c-3.68,1.15-7.26,2.6-10.71,4.34h0Z"/>
      <path class="cls-2" d="M43.79,53.84c.56.37,1.12.73,1.7,1.08,1.88,1.16,4.3.94,5.95-.53,1.81-1.61,3.43-3.43,4.81-5.42l-9.55-5.51-.67,1.15-3.84-2.22c.84,3.76,1.38,7.59,1.6,11.44h0Z"/>
      <path class="cls-4" d="M20.59,25.28c-.56-1.81-1.05-3.64-1.46-5.48l4,2.31c.9.52,1.55,1.36,1.84,2.33-1.47.24-2.93.52-4.38.84h0Z"/>
      <path class="cls-1" d="M40.74,36.91c1.85-.42,3.68-.91,5.48-1.47l-4-2.31c-.9-.52-1.95-.66-2.94-.43.53,1.39,1.02,2.79,1.46,4.21h0Z"/>
      <path class="cls-1" d="M20.59,25.28c-1.85.42-3.67.91-5.48,1.47l4,2.31c.9.52,1.95.66,2.94.43-.53-1.39-1.02-2.79-1.46-4.21h0Z"/>
      <path class="cls-4" d="M40.74,36.91c.56,1.81,1.05,3.64,1.46,5.48l-4-2.31c-.9-.52-1.55-1.36-1.84-2.33,1.47-.23,2.93-.52,4.38-.84h0Z"/>
      <path class="cls-3" d="M25.07,24.87c-.03-.15-.06-.29-.11-.43h0c-1.47.24-2.93.52-4.38.84.44,1.42.93,2.82,1.46,4.21,2.05-.49,3.4-2.54,3.02-4.62h0Z"/>
      <path class="cls-3" d="M38.85,32.83c.14-.05.28-.09.43-.13h0c.53,1.39,1.02,2.79,1.46,4.21-1.45.33-2.91.61-4.38.84-.6-2.02.5-4.21,2.49-4.93h0Z"/>
      <path class="cls-1" d="M15.11,35.44l-3.84,2.22.67,1.15-9.54,5.51c-1.03-2.2-1.79-4.5-2.29-6.88-.45-2.16.57-4.36,2.52-5.41.59-.32,1.18-.63,1.78-.93,3.45,1.74,7.03,3.19,10.71,4.34h0Z"/>
      <path class="cls-1" d="M42.2,19.8l3.84-2.22.67,1.15,9.55-5.51c-1.39-1.99-3-3.81-4.81-5.42-1.65-1.47-4.07-1.68-5.95-.53-.57.35-1.14.71-1.7,1.08-.22,3.86-.75,7.69-1.6,11.45h0Z"/>
      <path class="cls-1" d="M17.53,53.84c-.56.37-1.12.73-1.7,1.08-1.88,1.16-4.3.94-5.95-.53-1.81-1.61-3.43-3.43-4.81-5.42l9.54-5.51.67,1.15,3.84-2.22c-.84,3.76-1.38,7.59-1.6,11.44h0Z"/>
      <path class="cls-1" d="M56.93,31.09c.6-.3,1.19-.61,1.78-.93,1.94-1.05,2.96-3.25,2.52-5.41-.49-2.37-1.26-4.68-2.29-6.88l-9.54,5.51.67,1.15-3.84,2.22c3.68,1.15,7.26,2.6,10.71,4.34h0Z"/>
      <path class="cls-2" d="M20.59,36.91c-1.85-.42-3.67-.91-5.48-1.47l4-2.31c.9-.52,1.95-.66,2.94-.43-.53,1.39-1.02,2.79-1.46,4.21h0Z"/>
      <path class="cls-4" d="M40.74,25.28c.56-1.81,1.05-3.64,1.46-5.48l-4,2.31c-.9.52-1.55,1.36-1.84,2.33,1.47.24,2.93.52,4.38.84h0Z"/>
      <path class="cls-4" d="M20.59,36.91c-.56,1.81-1.05,3.64-1.46,5.48l4-2.31c.9-.52,1.55-1.36,1.84-2.33-1.47-.23-2.93-.52-4.38-.84h0Z"/>
      <path class="cls-2" d="M40.74,25.28c1.85.42,3.68.91,5.48,1.47l-4,2.31c-.9.52-1.95.66-2.94.43.53-1.39,1.02-2.79,1.46-4.21h0Z"/>
      <path class="cls-3" d="M22.48,32.83c-.14-.05-.28-.09-.43-.13h0c-.53,1.39-1.02,2.79-1.46,4.21,1.45.33,2.91.61,4.38.84.6-2.02-.5-4.21-2.49-4.93h0Z"/>
      <path class="cls-3" d="M36.26,24.87c.03-.15.06-.29.1-.43h0c1.47.24,2.93.52,4.38.84-.44,1.42-.93,2.82-1.46,4.21-2.05-.49-3.4-2.54-3.02-4.62h0Z"/>
      <path class="cls-5" d="M33.58,39.36c-.26-.28-.57-.52-.91-.72-1.24-.72-2.78-.72-4.02,0-.34.2-.65.44-.91.72-.04-.04-.07-.08-.1-.13-.34-.42-.64-.87-.9-1.34-.54.01-1.08-.03-1.61-.11-.05,0-.11-.02-.16-.03.11-.37.17-.75.17-1.15,0-1.43-.77-2.76-2.01-3.48-.34-.2-.71-.34-1.08-.43.02-.05.04-.1.06-.15.19-.5.43-.99.71-1.45-.28-.46-.52-.95-.71-1.45-.02-.05-.04-.1-.06-.15.37-.09.74-.23,1.08-.43,1.24-.72,2.01-2.04,2.01-3.48,0-.39-.06-.78-.17-1.15.05,0,.11-.02.16-.03.53-.08,1.07-.12,1.61-.11.26-.47.56-.92.9-1.34.04-.04.07-.08.1-.13.26.28.57.52.91.72,1.24.72,2.77.72,4.02,0,.34-.2.65-.44.91-.72.03.04.07.08.1.13.34.42.64.87.9,1.34.54-.01,1.08.03,1.61.11.05,0,.11.02.16.03-.11.37-.17.75-.17,1.15,0,1.43.77,2.76,2.01,3.48.34.2.71.34,1.08.43-.02.05-.04.1-.06.15-.19.5-.43.99-.71,1.45.28.46.52.95.71,1.45.02.05.04.1.06.15-.37.09-.74.23-1.08.43-1.24.72-2.01,2.04-2.01,3.48,0,.39.06.78.17,1.15-.05,0-.11.02-.16.03-.53.08-1.07.12-1.61.11-.26.47-.56.92-.9,1.34-.03.04-.07.08-.1.13h0ZM29.8,28.29s0,0,.01,0c.02,0,.03,0,.05-.02.01,0,.02,0,.04,0,0,0,.01,0,.02,0,.25-.07.5-.1.76-.1.02,0,.03,0,.05,0h0c.2,0,.4.03.6.07,0,0,0,0,0,0,.02,0,.04,0,.06.01,0,0,.02,0,.03,0,.01,0,.02,0,.03,0,.02,0,.04.01.05.02,0,0,0,0,.01,0,.19.06.38.14.55.23,0,0,0,0,0,0,.01,0,.03.02.04.02.22.12.42.28.61.46,0,0,.01.01.02.02,0,0,.02.02.02.02.01.01.03.03.04.04,0,0,0,0,0,0,.14.15.26.31.36.48,0,0,0,0,0,0,0,.02.02.03.03.05,0,.02.02.03.03.05,0,0,0,0,0,0,.1.17.17.36.23.55,0,0,0,0,0,0,0,.02,0,.03.01.05,0,.01,0,.02,0,.03,0,0,0,.01,0,.02.07.25.1.5.1.76v.05h0c0,.21-.03.41-.07.6,0,0,0,0,0,0,0,.02,0,.04-.01.06,0,.01,0,.02,0,.03,0,.01,0,.02,0,.03,0,.02-.01.04-.02.06,0,0,0,0,0,0-.06.19-.14.38-.23.55,0,0,0,0,0,0,0,.01-.02.03-.02.04-.12.22-.28.42-.46.6,0,0-.01.01-.02.02,0,0-.02.02-.02.02-.01.01-.03.03-.04.04,0,0,0,0,0,0-.15.14-.31.26-.48.36,0,0,0,0,0,0-.02,0-.03.02-.05.03-.02,0-.03.02-.05.03,0,0,0,0,0,0-.17.1-.36.17-.55.23,0,0,0,0,0,0-.02,0-.03.01-.05.01-.01,0-.02,0-.04.01,0,0-.01,0-.02,0-.25.06-.5.1-.75.1-.02,0-.03,0-.05,0h0c-.2,0-.4-.03-.59-.07,0,0,0,0-.01,0-.02,0-.04,0-.05-.01-.01,0-.02,0-.03,0-.01,0-.02,0-.03,0-.02,0-.04-.01-.05-.02,0,0,0,0,0,0-.19-.06-.38-.14-.55-.23,0,0,0,0,0,0-.02,0-.03-.02-.04-.02-.22-.13-.42-.28-.6-.46,0,0-.01,0-.02-.02,0,0-.02-.02-.03-.02-.01-.01-.03-.02-.04-.04,0,0,0,0,0,0-.14-.15-.26-.31-.36-.48,0,0,0,0,0,0,0-.02-.02-.03-.03-.05,0-.02-.02-.03-.03-.05,0,0,0,0,0,0-.1-.17-.17-.36-.23-.55,0,0,0,0,0-.01,0-.02,0-.03-.02-.05,0-.01,0-.02,0-.04,0,0,0-.01,0-.02-.07-.25-.1-.5-.1-.76v-.05h0c0-.21.03-.41.07-.6,0,0,0,0,0,0,0-.02,0-.04.01-.06,0-.01,0-.02,0-.03,0-.01,0-.02,0-.03,0-.02.01-.04.02-.06,0,0,0,0,0,0,.06-.19.14-.38.23-.55,0,0,0,0,0,0,0-.01.01-.03.02-.04.12-.22.28-.42.46-.61,0,0,0-.01.02-.02,0,0,.02-.02.03-.02.01-.01.03-.02.04-.04,0,0,0,0,0,0,.15-.14.31-.26.48-.36,0,0,0,0,0,0,.01,0,.03-.02.04-.03.02,0,.03-.02.05-.03,0,0,0,0,0,0,.17-.1.36-.17.55-.23h0Z"/>
    </g>
    <g>
      <path class="cls-7" d="M77.42,38.46v-1.75h9.5v-20.45h3v7.23h9.4v1.96h-9.4v11.26h11.26v1.75h-23.76ZM109.91,29.86v-1.75h1.76v-6.18h14.46v6.18h2.17v1.75h-2.17v4.46h1.55v1.75h-1.55v.41c0,2.07-1.14,3.1-3.41,3.1h-3v-1.75h2.28c1.1.07,1.65-.38,1.65-1.35v-.41h-8.57c-2.34.07-3.48-1-3.41-3.21v-3.01h-1.76ZM114.15,23.58v4.53h9.5v-4.53h-9.5ZM114.15,32.45c-.07,1.31.55,1.93,1.86,1.87h7.64v-4.46h-9.5v2.59h0ZM109.81,21.92v-1.45c2.07-.89,3.48-2.41,4.23-4.54h2.69c0,.07-.04.17-.11.31-.27.83-.55,1.41-.82,1.75h11.98v1.65h-13.32c-1.1,1.04-2.65,1.79-4.65,2.28h0ZM104.13,39.28c1.38-3.03,2.31-6.51,2.79-10.43h2.27c-.28,3.92-1.07,7.4-2.38,10.43h-2.69ZM106.5,21.51c-.48-1.79-1.1-3.48-1.86-5.06h2.38c.89,1.79,1.51,3.48,1.86,5.06h-2.38ZM106.71,27.71c-.48-1.79-1.1-3.48-1.86-5.06h2.27c.96,1.65,1.62,3.34,1.96,5.06h-2.38ZM118.28,27.6c-.21-1.1-.55-2.24-1.03-3.41h2.27c.62,1.1,1,2.24,1.14,3.41h-2.38ZM118.38,33.9c-.07-1.17-.41-2.34-1.04-3.51h2.27c.69,1.31,1.1,2.48,1.24,3.51h-2.48ZM133.21,38.96v-20.13h6.51c.28-.82.52-1.75.72-2.79h3c-.14,1.04-.38,1.97-.72,2.79h9.81v16.62c.07,2.41-1.1,3.58-3.51,3.51h-15.8ZM135.99,37.2h11.98c1.24,0,1.82-.59,1.76-1.75v-2.57h-13.74v4.33h0ZM135.99,26.66v4.25h13.74v-4.25h-13.74ZM135.99,20.69v4.01h13.74v-4.01h-13.74ZM158.99,21.19v-1.86h9.19v-3.3h3v3.3h9.29v1.86h-9.29v6.42h8.26v1.86h-8.26v7.34h10.33v1.75h-23.66v-1.75h10.33v-7.34h-8.16v-1.86h8.16v-6.42h-9.19ZM187.75,39.28v-10.64h17.76v7.54c.07,2.13-1.1,3.17-3.51,3.1h-14.25ZM198.09,26.78v-9.4h9.28v6.41c.06,2.07-.97,3.06-3.09,2.99h-6.19ZM197.05,28.23c-2.89-.76-4.85-1.9-5.89-3.41-1.03,1.52-3.1,2.65-6.2,3.41v-1.34c2.55-.89,4.06-2.1,4.54-3.61h-4.75v-1.55h5.17v-.62c.07-.28.1-.52.1-.72v-1.45h-1.75c-.69.69-1.89,1.2-3.61,1.55v-1.24c1.72-.62,2.68-1.75,2.89-3.41h2.27c-.14.62-.31,1.17-.52,1.65h7.13v1.45h-4.03v1.03c0,.62-.04,1.2-.11,1.75h4.75v1.55h-4.55c.82,1.58,2.34,2.75,4.55,3.51v1.45h0ZM190.33,37.52h11.05c1.1.07,1.62-.38,1.55-1.35v-1.45h-12.6v2.8h0ZM190.33,30.39v2.78h12.6v-2.78h-12.6ZM200.47,25.13h3.08c1.03.07,1.51-.45,1.44-1.55v-4.55h-4.52v6.1h0ZM212.49,39.58v-14.45h10.23v11.47c.07,2-1,2.96-3.2,2.89h-1.86v-1.75h1.24c.96.07,1.41-.31,1.34-1.15v-1.76h-5.27v4.75h-2.48ZM227.87,39.28c-2,.07-2.96-.89-2.89-2.89v-8.78h2.48v4.44c2.41-.55,4.06-1.69,4.96-3.41h2.48c-1.1,2.82-3.58,4.51-7.44,5.06v2.48c-.07.89.45,1.31,1.55,1.24h2.69c.96.07,1.41-.31,1.34-1.14v-.82h1.96v1.14c.07,1.86-.93,2.75-3,2.68h-4.13ZM227.87,26.56c-2,.07-2.96-.93-2.89-2.99v-7.54h2.48v4.03c2.48-.55,4.1-1.59,4.86-3.1h2.48c-1.03,2.68-3.48,4.27-7.33,4.75v1.65c0,.96.48,1.45,1.45,1.45h2.79c.96.07,1.41-.41,1.34-1.45v-.72h1.96v1.13c.14,1.93-.9,2.86-3.1,2.79h-4.03ZM221.58,24.09c-.07-.48-.17-.93-.31-1.34-1.86.34-5.1.52-9.71.52v-1.86c1.79-1.52,3.24-3.34,4.34-5.47h2.99c-1.38,2.34-2.93,4.17-4.65,5.47,2.48,0,4.61-.1,6.4-.31-.28-.83-.69-1.69-1.24-2.58h2.17c1.24,1.86,2.06,3.72,2.48,5.57h-2.48ZM214.97,30.81v2.47h5.27v-2.47h-5.27ZM214.97,26.78v2.47h5.27v-2.47h-5.27ZM240.23,19.44v-1.86h19.94v1.86h-8.88v.92c0,1.65-.1,3.17-.31,4.54h10.95v1.86h-11.15c-.14.62-.31,1.2-.52,1.75h2.48v7.03c-.07,1.1.48,1.65,1.65,1.65h3.31c1.17,0,1.72-.55,1.65-1.65v-1.04h2.27v1.45c.07,2-1.1,2.99-3.52,2.99h-4.65c-2.27.07-3.41-1-3.41-3.2v-6.5c-1.24,3.99-4.96,7.5-11.15,10.54v-1.97c5.37-3.1,8.37-6.78,8.99-11.05h-9.4v-1.86h9.71c.14-1.24.21-2.61.21-4.12v-1.34h-8.16ZM288.83,39.69c-6.47-4-10.43-8.64-11.88-13.95-1.52,5.24-5.47,9.89-11.88,13.95v-1.96c6.96-5.37,10.4-11.84,10.33-19.42v-2.07h3v2.07c-.07,7.64,3.41,14.12,10.43,19.42v1.96h0ZM293.31,31.12v-1.96c3.23-1.1,6.44-2.48,9.6-4.13-2.89.21-5.78.31-8.67.31v-1.86c2.48-.96,4.96-2.3,7.44-4.03h-8.68v-1.86h13.63c2.48,0,5.17-.31,8.06-.93v1.96c-2.55.62-4.99.9-7.33.83h-1.76c-2.41,1.72-4.75,3.06-7.02,4.03,2.2,0,4.71-.07,7.54-.21.35-.21.86-.52,1.55-.93.62-.41,1.1-.72,1.45-.93h4.03c-5.03,3.51-9.95,6.13-14.77,7.85,4.75-.07,8.88-.21,12.4-.41-.35-.89-.83-1.9-1.45-3h2.27c1.31,2,2.24,4.07,2.79,6.2h-2.58c-.07-.48-.21-.96-.41-1.45-2,.21-4.03.31-6.1.31v5.68c0,2-1.03,2.97-3.1,2.89h-2.38v-1.86h1.24c1.04.07,1.52-.34,1.45-1.24v-5.37c-1.72.07-4.79.1-9.19.1h0ZM292.08,38.55v-1.34c2.55-1.1,4.2-2.72,4.96-4.86h2.68c-.89,3.24-3.44,5.31-7.64,6.2h0ZM315.42,38.55c-4.2-.89-6.78-2.96-7.74-6.2h2.79c.62,2.07,2.28,3.68,4.96,4.86v1.34h0ZM326.72,20.05v-1.75h6.42v-2.27h2.79v2.27h6.3v1.75h-7.64c-1.38,2.34-2.93,4.31-4.65,5.89,3.38,0,6.34-.14,8.88-.41-.2-.48-.55-1.24-1.03-2.27-.21-.41-.38-.72-.52-.93h2.17c1.24,2.27,2.17,4.44,2.79,6.5h-2.38c-.21-.55-.34-1.07-.41-1.55h-.31c-.48.14-1.03.21-1.65.21v8.37c-.07,1.04.49,1.52,1.65,1.45,1.17.07,1.72-.41,1.65-1.45v-.82h1.75v1.34c.07,1.86-.93,2.75-2.99,2.69h-1.35c-2.2.07-3.27-.9-3.2-2.9v-8.47c-.76.07-1.55.1-2.39.1v2.17c.34,4.75-1.93,8.03-6.82,9.82v-1.86c3.1-1.52,4.55-4.2,4.34-8.06v-1.97h-2.89v-1.96c1.93-1.79,3.37-3.75,4.34-5.89h-4.86ZM318.68,25.74v-1.86c1.65-2.34,2.82-4.96,3.51-7.85h2.58c-.83,2.96-2.17,5.58-4.03,7.85,1.38,0,2.38-.04,3-.11.21-.48.52-1.2.93-2.17.07-.21.14-.38.21-.52h2.38c-1.38,3.79-3.3,6.88-5.78,9.29,1.86,0,3.54-.14,5.06-.41v1.76c-1.79.48-4.24.69-7.33.62v-1.96c1.58-1.79,2.75-3.38,3.51-4.75-.76.07-2.1.1-4.03.1h0ZM318.57,37.21v-1.96c3.03.07,5.82-.21,8.37-.83v1.65c-2.48.76-5.27,1.14-8.37,1.14h0ZM345.79,19.02v-1.86h4.96c1.58,0,3.03-.21,4.34-.62v1.96c-1.38.34-2.48.52-3.3.52v3.61h3.3v1.75h-3.3c.69,2.34,1.75,4.54,3.2,6.61v2.48c-1.45-1.65-2.52-3.13-3.2-4.44v10.74h-2.58v-10.22c-.76,1.86-2.1,3.89-4.03,6.1v-2.48c1.86-2.82,3.17-5.75,3.93-8.78h-3.62v-1.75h3.72v-3.61h-3.41ZM355.5,33.27v-1.86h7.95v-15.39h2.69v15.39h3.3v1.86h-3.3v6.51h-2.69v-6.51h-7.95ZM361.7,28.64c-1.93-1.31-3.92-2.14-5.99-2.48v-1.86c2.41.28,4.41.86,5.99,1.76v2.58h0ZM362.22,22.23c-1.79-1.04-3.72-1.72-5.79-2.07v-1.86c2.27.14,4.2.65,5.79,1.55v2.38h0ZM372.29,32.66v-1.75h10.95v-1.34c1.86-.82,3.55-1.89,5.06-3.2h-12.09v-1.86h16.12v1.86c-1.93,1.51-3.96,2.71-6.09,3.61v.93h9.81v1.75h-9.81v3.62c0,2.27-1.24,3.41-3.72,3.41h-2.79v-1.86h1.65c1.31.07,1.93-.48,1.86-1.66v-3.52h-10.95ZM373.01,24.09v-4.34h15.91c.83-1.17,1.41-2.41,1.76-3.72h2.68c-.62,1.58-1.31,2.83-2.07,3.72h4.13v4.34h-2.58v-2.58h-17.25v2.58h-2.58ZM383.34,19.13c-.28-1.03-.66-2.06-1.14-3.1h2.38c.55.96.96,2,1.24,3.1h-2.48ZM376.21,19.13c-.21-1.03-.58-2.06-1.13-3.1h2.48c.41.83.83,1.86,1.24,3.1h-2.58ZM400.32,32.77v-12.49h9.22v-4.34h2.89v4.34h9.19v8.77c.07,2.55-1.07,3.79-3.41,3.72h-5.78v7.13h-2.89v-7.13h-9.22ZM403.01,30.91h6.53v-8.77h-6.53v8.77h0ZM418.94,22.14h-6.51v8.77h4.96c1.03,0,1.55-.59,1.55-1.75v-7.02h0ZM436.02,38.87c-2.69.14-4-1.11-3.93-3.72v-17.25h2.89v17.25c-.07,1.37.66,2.06,2.17,2.07h4.24c1.24,0,1.86-.62,1.86-1.86v-1.34h2.28v1.55c.06,2.27-1.1,3.37-3.52,3.31h-5.99ZM426.11,35.45c.89-4.34,1.48-9.06,1.75-14.15h2.17c-.07,4.54-.48,9.26-1.24,14.15h-2.68ZM439.64,27.39c-.14-4.06-.59-7.85-1.34-11.36h2.17c.9,3.51,1.55,7.3,1.96,11.36h-2.79ZM447.18,35.35c-.34-4.96-.96-9.71-1.86-14.25h2.17c1.1,4.68,1.89,9.43,2.38,14.25h-2.68Z"/>
      <path class="cls-6" d="M77.77,51.9v-1c.85,1.36,2.04,2.04,3.55,2.04s2.21-.53,2.24-1.6c0-.93-.77-1.49-2.32-1.68-2.23-.32-3.3-1.13-3.19-2.44.08-1.44,1.12-2.18,3.11-2.23,1.92,0,3.05.81,3.39,2.44h-1.16c-.32-1.12-1.06-1.69-2.24-1.72-1.25.03-1.89.53-1.92,1.52-.08.8.64,1.3,2.16,1.52,2.26.37,3.38,1.21,3.36,2.52-.03,1.57-1.13,2.37-3.32,2.39-1.62.03-2.85-.56-3.67-1.76h0ZM86.33,53.49v-8.94h1.16v2.83h1.72c1.7,0,2.56.73,2.56,2.2v3.91h-1.16v-3.71c.03-1.14-.57-1.7-1.8-1.68h-1.32v5.39h-1.16ZM97.69,52.93v-2.44h-1.64c-1.28,0-1.9.41-1.88,1.24-.03.8.55,1.2,1.72,1.2h1.8ZM96.13,49.74h1.56c.03-1.12-.49-1.66-1.56-1.64-.93-.03-1.56.39-1.88,1.24h-1.04c.43-1.36,1.4-2.02,2.91-2,1.65,0,2.47.72,2.47,2.16v4.15h-2.75c-1.7-.03-2.57-.64-2.6-1.84.03-1.39.99-2.08,2.88-2.08h0ZM100.19,53.53v-6.15h2.91c1.7,0,2.55.73,2.55,2.2v3.95h-1.16v-3.87c0-1.04-.53-1.54-1.6-1.52h-1.56v5.39h-1.16ZM111.9,52.65v-4.51h-1.24c-1.54.05-2.34.83-2.39,2.32,0,1.46.8,2.2,2.39,2.2h1.24ZM107.31,55.05v-.84c.75.69,1.58,1.04,2.52,1.04,1.44.05,2.13-.6,2.07-1.96h-1.56c-2.18,0-3.27-.93-3.27-2.8.05-2,1.16-3.02,3.31-3.07h2.67v5.59c.05,2.05-.96,3.05-3.03,2.99-1.12,0-2.02-.32-2.71-.96h0ZM115.04,53.49v-8.94h1.16v2.83h1.72c1.7,0,2.55.73,2.55,2.2v3.91h-1.16v-3.71c.03-1.14-.57-1.7-1.8-1.68h-1.32v5.39h-1.16ZM126.4,52.93v-2.44h-1.64c-1.28,0-1.9.41-1.88,1.24-.03.8.55,1.2,1.72,1.2h1.8ZM124.84,49.74h1.56c.03-1.12-.49-1.66-1.56-1.64-.93-.03-1.56.39-1.88,1.24h-1.04c.43-1.36,1.4-2.02,2.91-2,1.65,0,2.47.72,2.47,2.16v4.15h-2.75c-1.7-.03-2.57-.64-2.6-1.84.03-1.39.99-2.08,2.88-2.08h0ZM129.1,53.53v-6.03h1.16v6.03h-1.16ZM129.1,46.15v-1.08h1.16v1.08h-1.16ZM141.02,53.53l-2.92-3.63h-2.15v3.63h-1.16v-8.46h4.07c1.94.03,2.93.85,2.96,2.47.03,1.44-.77,2.22-2.4,2.36l2.99,3.63h-1.4ZM135.95,45.83v3.35h2.59c1.44.05,2.13-.49,2.08-1.64,0-1.14-.69-1.72-2.08-1.72h-2.59ZM149.43,50.86h-4.91c.11,1.39.88,2.08,2.31,2.08,1.04,0,1.89-.41,2.56-1.24v.88c-.64.72-1.57,1.08-2.8,1.08-2.1-.08-3.19-1.09-3.27-3.03.08-2.08,1.11-3.16,3.07-3.24,2.03,0,3.04,1.16,3.04,3.47h0ZM144.52,50.1h3.79c-.05-1.28-.68-1.94-1.88-2-1.09.03-1.73.69-1.92,2h0ZM150.61,52.46v-.88c.82.93,1.73,1.38,2.71,1.36,1.07.03,1.57-.28,1.52-.92.03-.61-.48-.99-1.52-1.12-1.73-.27-2.58-.88-2.55-1.84.11-1.06.91-1.62,2.4-1.68,1.44.03,2.29.61,2.55,1.76h-1.04c-.19-.69-.66-1.04-1.44-1.04-.85,0-1.29.32-1.32.96-.05.58.51.93,1.68,1.04,1.57.21,2.37.84,2.4,1.88,0,1.14-.88,1.72-2.64,1.72-1.12.03-2.04-.38-2.75-1.24h0ZM163.32,50.86h-4.91c.11,1.39.88,2.08,2.31,2.08,1.04,0,1.89-.41,2.56-1.24v.88c-.64.72-1.57,1.08-2.8,1.08-2.1-.08-3.19-1.09-3.27-3.03.08-2.08,1.11-3.16,3.07-3.24,2.02,0,3.04,1.16,3.04,3.47h0ZM158.41,50.1h3.79c-.05-1.28-.68-1.94-1.88-2-1.09.03-1.73.69-1.92,2h0ZM169.01,52.93v-2.44h-1.64c-1.28,0-1.9.41-1.88,1.24-.03.8.55,1.2,1.72,1.2h1.8ZM167.46,49.74h1.56c.03-1.12-.49-1.66-1.56-1.64-.93-.03-1.56.39-1.88,1.24h-1.04c.43-1.36,1.4-2.02,2.91-2,1.65,0,2.48.72,2.48,2.16v4.15h-2.76c-1.7-.03-2.57-.64-2.6-1.84.03-1.39.99-2.08,2.88-2.08h0ZM171.59,53.61v-4.23c0-1.31.66-1.96,1.99-1.96h1.84v.72h-1.52c-.75.03-1.13.41-1.16,1.16v4.31h-1.16ZM182.35,49.42h-1.12c-.27-.85-.84-1.28-1.71-1.28-1.17.03-1.77.84-1.8,2.44.03,1.57.76,2.36,2.2,2.36.93,0,1.74-.48,2.44-1.44v.96c-.59.82-1.52,1.24-2.79,1.24-1.94-.08-2.96-1.12-3.04-3.11.08-2.05,1.08-3.11,3-3.19,1.49.03,2.43.71,2.83,2.04h0ZM184.17,53.49v-8.94h1.16v2.83h1.72c1.7,0,2.55.73,2.55,2.2v3.91h-1.16v-3.71c.03-1.14-.57-1.7-1.8-1.68h-1.32v5.39h-1.16ZM194.06,53.53v-8.46h1.16v8.46h-1.16ZM196.87,53.53v-6.15h2.91c1.7,0,2.55.73,2.55,2.2v3.95h-1.16v-3.87c0-1.04-.53-1.54-1.6-1.52h-1.56v5.39h-1.16ZM203.68,52.46v-.88c.82.93,1.73,1.38,2.71,1.36,1.06.03,1.57-.28,1.52-.92.03-.61-.48-.99-1.52-1.12-1.73-.27-2.58-.88-2.55-1.84.11-1.06.91-1.62,2.4-1.68,1.44.03,2.29.61,2.55,1.76h-1.04c-.19-.69-.66-1.04-1.44-1.04-.85,0-1.29.32-1.32.96-.05.58.51.93,1.68,1.04,1.57.21,2.37.84,2.4,1.88,0,1.14-.88,1.72-2.63,1.72-1.12.03-2.04-.38-2.75-1.24h0ZM210.17,48.22v-.72h1.04v-2.43h1.12v2.43h1.36v.72h-1.36v3.83c-.03.59.23.88.76.88.24,0,.48-.08.72-.24v.6c-.29.24-.67.36-1.12.36-1.01.03-1.5-.48-1.48-1.52v-3.91h-1.04ZM215.22,53.53v-6.03h1.16v6.03h-1.16ZM215.22,46.15v-1.08h1.16v1.08h-1.16ZM217.8,48.22v-.72h1.04v-2.43h1.12v2.43h1.36v.72h-1.36v3.83c-.03.59.23.88.76.88.24,0,.48-.08.72-.24v.6c-.29.24-.67.36-1.12.36-1.01.03-1.5-.48-1.48-1.52v-3.91h-1.04ZM222.81,51.46v-3.96h1.16v3.83c-.05,1.09.52,1.62,1.72,1.6h1.44v-5.43h1.16v6.11h-3.03c-1.65.03-2.46-.69-2.44-2.15h0ZM229.73,48.22v-.72h1.04v-2.43h1.12v2.43h1.36v.72h-1.36v3.83c-.03.59.23.88.76.88.24,0,.48-.08.72-.24v.6c-.29.24-.67.36-1.12.36-1.01.03-1.5-.48-1.48-1.52v-3.91h-1.04ZM240.58,50.86h-4.91c.11,1.39.88,2.08,2.31,2.08,1.04,0,1.89-.41,2.55-1.24v.88c-.64.72-1.57,1.08-2.79,1.08-2.1-.08-3.19-1.09-3.27-3.03.08-2.08,1.11-3.16,3.07-3.24,2.02,0,3.04,1.16,3.04,3.47h0ZM235.67,50.1h3.79c-.05-1.28-.68-1.94-1.88-2-1.09.03-1.73.69-1.92,2h0ZM248.11,47.5v.72h-1.48v5.27h-1.12v-5.27h-1.04v-.72h1.04v-1.12c-.03-1.28.6-1.9,1.88-1.87h1.28v.72h-.96c-.72-.03-1.08.36-1.08,1.16v1.12h1.48ZM252.4,52.93c1.22-.03,1.85-.81,1.88-2.36-.05-1.57-.68-2.4-1.88-2.48-1.25.05-1.89.88-1.92,2.48.05,1.52.69,2.3,1.92,2.36h0ZM252.36,53.65c-1.92-.11-2.93-1.12-3.04-3.03.08-2.1,1.12-3.19,3.12-3.27,1.92.08,2.91,1.14,2.99,3.19-.05,2.02-1.08,3.06-3.07,3.11h0ZM256.81,53.61v-4.23c0-1.31.67-1.96,2-1.96h1.84v.72h-1.52c-.75.03-1.13.41-1.16,1.16v4.31h-1.16ZM264.59,53.53v-8.46h1.16v8.46h-1.16ZM267.4,53.53v-6.15h2.92c1.7,0,2.55.73,2.55,2.2v3.95h-1.16v-3.87c0-1.04-.53-1.54-1.6-1.52h-1.56v5.39h-1.16ZM274.17,48.22v-.72h1.04v-2.43h1.12v2.43h1.36v.72h-1.36v3.83c-.03.59.23.88.76.88.24,0,.48-.08.72-.24v.6c-.29.24-.67.36-1.12.36-1.01.03-1.51-.48-1.48-1.52v-3.91h-1.04ZM285.01,50.86h-4.91c.11,1.39.88,2.08,2.31,2.08,1.04,0,1.89-.41,2.56-1.24v.88c-.64.72-1.57,1.08-2.8,1.08-2.1-.08-3.19-1.09-3.27-3.03.08-2.08,1.11-3.16,3.07-3.24,2.03,0,3.04,1.16,3.04,3.47h0ZM280.1,50.1h3.79c-.05-1.28-.68-1.94-1.88-2-1.09.03-1.73.69-1.92,2h0ZM286.55,53.49v-8.94h1.16v8.94h-1.16ZM289.53,53.49v-8.94h1.16v8.94h-1.16ZM292.54,53.53v-6.03h1.16v6.03h-1.16ZM292.54,46.15v-1.08h1.16v1.08h-1.16ZM300.07,52.65v-4.51h-1.24c-1.54.05-2.34.83-2.39,2.32,0,1.46.8,2.2,2.39,2.2h1.24ZM295.48,55.05v-.84c.75.69,1.58,1.04,2.52,1.04,1.44.05,2.13-.6,2.07-1.96h-1.56c-2.18,0-3.27-.93-3.27-2.8.05-2,1.16-3.02,3.31-3.07h2.67v5.59c.05,2.05-.96,3.05-3.03,2.99-1.12,0-2.02-.32-2.71-.96h0ZM308.91,50.86h-4.91c.11,1.39.88,2.08,2.31,2.08,1.04,0,1.89-.41,2.55-1.24v.88c-.64.72-1.57,1.08-2.79,1.08-2.1-.08-3.19-1.09-3.27-3.03.08-2.08,1.11-3.16,3.07-3.24,2.02,0,3.03,1.16,3.03,3.47h0ZM304,50.1h3.79c-.05-1.28-.68-1.94-1.88-2-1.09.03-1.73.69-1.92,2h0ZM310.29,53.53v-6.15h2.91c1.7,0,2.55.73,2.55,2.2v3.95h-1.16v-3.87c0-1.04-.53-1.54-1.6-1.52h-1.56v5.39h-1.16ZM317.06,48.22v-.72h1.04v-2.43h1.12v2.43h1.36v.72h-1.36v3.83c-.03.59.23.88.76.88.24,0,.48-.08.72-.24v.6c-.29.24-.67.36-1.12.36-1.01.03-1.5-.48-1.48-1.52v-3.91h-1.04ZM324.12,53.53l3.51-8.46h1.36l3.51,8.46h-1.24l-1-2.44h-3.91l-1,2.44h-1.24ZM328.31,46.15l-1.68,4.19h3.36l-1.68-4.19h0ZM333.68,51.46v-3.96h1.16v3.83c-.05,1.09.52,1.62,1.72,1.6h1.44v-5.43h1.16v6.11h-3.04c-1.65.03-2.46-.69-2.44-2.15h0ZM340.61,48.22v-.72h1.04v-2.43h1.12v2.43h1.36v.72h-1.36v3.83c-.03.59.23.88.76.88.24,0,.48-.08.72-.24v.6c-.29.24-.67.36-1.12.36-1.01.03-1.5-.48-1.48-1.52v-3.91h-1.04ZM348.37,52.93c1.22-.03,1.85-.81,1.88-2.36-.05-1.57-.68-2.4-1.88-2.48-1.25.05-1.89.88-1.92,2.48.05,1.52.69,2.3,1.92,2.36h0ZM348.33,53.65c-1.92-.11-2.93-1.12-3.03-3.03.08-2.1,1.12-3.19,3.11-3.27,1.92.08,2.91,1.14,2.99,3.19-.05,2.02-1.08,3.06-3.07,3.11h0ZM352.71,53.53v-6.15h2.91c1.7,0,2.55.73,2.55,2.2v3.95h-1.16v-3.87c0-1.04-.53-1.54-1.6-1.52h-1.56v5.39h-1.16ZM362.63,52.93c1.22-.03,1.85-.81,1.88-2.36-.05-1.57-.68-2.4-1.88-2.48-1.25.05-1.89.88-1.92,2.48.05,1.52.69,2.3,1.92,2.36h0ZM362.59,53.65c-1.92-.11-2.93-1.12-3.03-3.03.08-2.1,1.12-3.19,3.11-3.27,1.92.08,2.92,1.14,2.99,3.19-.05,2.02-1.08,3.06-3.07,3.11h0ZM367.12,53.53v-6.15h6.75c1.49,0,2.24.65,2.24,1.96v4.19h-1.16v-4.07c0-.88-.48-1.32-1.44-1.32h-1.32v5.39h-1.16v-4.27c0-.75-.41-1.12-1.24-1.12h-1.52v5.39h-1.16ZM380.63,52.93c1.22-.03,1.85-.81,1.88-2.36-.05-1.57-.68-2.4-1.88-2.48-1.25.05-1.89.88-1.92,2.48.05,1.52.69,2.3,1.92,2.36h0ZM380.59,53.65c-1.92-.11-2.93-1.12-3.04-3.03.08-2.1,1.12-3.19,3.11-3.27,1.92.08,2.92,1.14,3,3.19-.05,2.02-1.08,3.06-3.07,3.11h0ZM385.12,51.46v-3.96h1.16v3.83c-.05,1.09.52,1.62,1.72,1.6h1.44v-5.43h1.16v6.11h-3.04c-1.65.03-2.46-.69-2.44-2.15h0ZM392.09,52.46v-.88c.82.93,1.73,1.38,2.71,1.36,1.06.03,1.57-.28,1.52-.92.03-.61-.48-.99-1.52-1.12-1.73-.27-2.58-.88-2.56-1.84.11-1.06.91-1.62,2.4-1.68,1.44.03,2.29.61,2.56,1.76h-1.04c-.19-.69-.66-1.04-1.44-1.04-.85,0-1.29.32-1.32.96-.05.58.51.93,1.68,1.04,1.57.21,2.37.84,2.4,1.88,0,1.14-.88,1.72-2.64,1.72-1.12.03-2.04-.38-2.75-1.24h0ZM401.26,51.9v-1c.85,1.36,2.04,2.04,3.55,2.04s2.21-.53,2.24-1.6c0-.93-.77-1.49-2.32-1.68-2.23-.32-3.3-1.13-3.19-2.44.08-1.44,1.12-2.18,3.11-2.23,1.92,0,3.05.81,3.39,2.44h-1.16c-.32-1.12-1.06-1.69-2.24-1.72-1.25.03-1.89.53-1.92,1.52-.08.8.64,1.3,2.16,1.52,2.26.37,3.38,1.21,3.36,2.52-.03,1.57-1.13,2.37-3.32,2.39-1.62.03-2.85-.56-3.67-1.76h0ZM409.27,55.73v-.64c.32.16.61.22.88.2.51.03.93-.4,1.28-1.28l.32-.64-2.6-5.83h1.28l1.84,4.67,1.8-4.67h1.24l-2.6,6.19c-.66,1.65-1.44,2.42-2.31,2.31-.43.03-.8-.08-1.12-.32h0ZM416.2,52.46v-.88c.82.93,1.73,1.38,2.71,1.36,1.06.03,1.57-.28,1.52-.92.03-.61-.48-.99-1.52-1.12-1.73-.27-2.58-.88-2.55-1.84.11-1.06.91-1.62,2.4-1.68,1.44.03,2.29.61,2.55,1.76h-1.04c-.19-.69-.66-1.04-1.44-1.04-.85,0-1.29.32-1.32.96-.05.58.51.93,1.68,1.04,1.57.21,2.37.84,2.4,1.88,0,1.14-.88,1.72-2.63,1.72-1.12.03-2.04-.38-2.75-1.24h0ZM422.69,48.22v-.72h1.04v-2.43h1.12v2.43h1.36v.72h-1.36v3.83c-.03.59.23.88.76.88.24,0,.48-.08.72-.24v.6c-.29.24-.67.36-1.12.36-1.01.03-1.5-.48-1.48-1.52v-3.91h-1.04ZM433.53,50.86h-4.91c.11,1.39.88,2.08,2.31,2.08,1.04,0,1.89-.41,2.55-1.24v.88c-.64.72-1.57,1.08-2.79,1.08-2.1-.08-3.19-1.09-3.28-3.03.08-2.08,1.11-3.16,3.08-3.24,2.02,0,3.03,1.16,3.03,3.47h0ZM428.62,50.1h3.79c-.05-1.28-.68-1.94-1.88-2-1.09.03-1.73.69-1.92,2h0ZM435.06,53.53v-6.15h6.75c1.49,0,2.24.65,2.24,1.96v4.19h-1.16v-4.07c0-.88-.48-1.32-1.44-1.32h-1.32v5.39h-1.16v-4.27c0-.75-.41-1.12-1.24-1.12h-1.52v5.39h-1.16ZM445.47,52.46v-.88c.82.93,1.73,1.38,2.71,1.36,1.06.03,1.57-.28,1.52-.92.03-.61-.48-.99-1.52-1.12-1.73-.27-2.58-.88-2.55-1.84.11-1.06.91-1.62,2.4-1.68,1.44.03,2.29.61,2.55,1.76h-1.04c-.19-.69-.66-1.04-1.44-1.04-.85,0-1.29.32-1.32.96-.05.58.51.93,1.68,1.04,1.57.21,2.37.84,2.4,1.88,0,1.14-.88,1.72-2.63,1.72-1.12.03-2.04-.38-2.75-1.24h0Z"/>
    </g>
  </g>
</svg>